<svg viewBox="0 0 1200 900" xmlns="http://www.w3.org/2000/svg" role="img" aria-label="Memtrace — structural memory for coding agents">
  <defs>
    <radialGradient id="centerGlow" cx="50%" cy="50%" r="50%">
      <stop offset="0%" stop-color="#00d4b8" stop-opacity="0.55"/>
      <stop offset="100%" stop-color="#00d4b8" stop-opacity="0"/>
    </radialGradient>
    <radialGradient id="bgGlow" cx="50%" cy="33%" r="55%">
      <stop offset="0%" stop-color="#00d4b8" stop-opacity="0.14"/>
      <stop offset="55%" stop-color="#00d4b8" stop-opacity="0.04"/>
      <stop offset="100%" stop-color="#00d4b8" stop-opacity="0"/>
    </radialGradient>
    <linearGradient id="cardGrad" x1="0" x2="0" y1="0" y2="1">
      <stop offset="0%" stop-color="#0F1822" stop-opacity="0.95"/>
      <stop offset="100%" stop-color="#0A1117" stop-opacity="0.98"/>
    </linearGradient>

    <!-- 7 reusable motion paths (cards → glyph), aligned so glyph centers vertically with cards -->
    <path id="flow1" d="M 322,135 C 380,135 460,290 510,290"/>
    <path id="flow2" d="M 322,197 C 380,197 460,305 510,305"/>
    <path id="flow3" d="M 322,259 C 380,259 460,315 510,315"/>
    <path id="flow4" d="M 322,321 C 380,321 460,321 510,321"/>
    <path id="flow5" d="M 322,383 C 380,383 460,327 510,327"/>
    <path id="flow6" d="M 322,445 C 380,445 460,337 510,337"/>
    <path id="flow7" d="M 322,507 C 380,507 460,352 510,352"/>
    <path id="flowOut" d="M 715,321 L 845,321"/>
  </defs>

  <!-- Background -->
  <rect width="1200" height="900" fill="#020303"/>
  <rect width="1200" height="900" fill="url(#bgGlow)"/>

  <!-- Top kicker labels -->
  <text x="180" y="56" font-family="Consolas, 'Courier New', monospace" font-size="13" letter-spacing="5" font-weight="700" fill="#00d4b8" text-anchor="middle">YOUR CODE  ·  LIVE</text>
  <text x="610" y="56" font-family="Consolas, 'Courier New', monospace" font-size="13" letter-spacing="5" font-weight="700" fill="#22d3ee" text-anchor="middle">STRUCTURE  ·  LIVE</text>
  <text x="1010" y="56" font-family="Consolas, 'Courier New', monospace" font-size="13" letter-spacing="5" font-weight="700" fill="#00d4b8" text-anchor="middle">AGENT  ·  INFORMED</text>

  <!-- LEFT: 7 source cards (50px tall, 12px gap) -->
  <g transform="translate(40, 110)">

    <!-- Card 1: Every function -->
    <rect x="0" y="0" width="280" height="50" rx="9" fill="url(#cardGrad)" stroke="#1E2837" stroke-width="1"/>
    <g transform="translate(20, 25)" stroke="#22d3ee" stroke-width="2" stroke-linecap="round" stroke-linejoin="round" fill="none">
      <path d="M -5 -7 L -10 0 L -5 7"/>
      <path d="M 5 -7 L 10 0 L 5 7"/>
      <line x1="-2" y1="8" x2="2" y2="-8" stroke-width="1.4" opacity="0.7"/>
    </g>
    <text x="50" y="22" font-family="Inter, system-ui, sans-serif" font-size="15" font-weight="700" fill="#F6FBFF">Every function</text>
    <text x="50" y="39" font-family="Consolas, monospace" font-size="11" fill="#9DA8B0"><tspan fill="#22d3ee">12,457</tspan> across all your files</text>
    <circle cx="260" cy="25" r="4" fill="#00d4b8">
      <animate attributeName="opacity" values="1;0.4;1" dur="3s" begin="0s" repeatCount="indefinite"/>
    </circle>

    <!-- Card 2: Every change -->
    <rect x="0" y="62" width="280" height="50" rx="9" fill="url(#cardGrad)" stroke="#1E2837" stroke-width="1"/>
    <g transform="translate(20, 87)" stroke="#22d3ee" stroke-width="1.8" stroke-linecap="round" fill="none">
      <circle r="8"/>
      <line x1="0" y1="0" x2="0" y2="-5"/>
      <line x1="0" y1="0" x2="4" y2="2"/>
    </g>
    <text x="50" y="84" font-family="Inter, system-ui, sans-serif" font-size="15" font-weight="700" fill="#F6FBFF">Every change</text>
    <text x="50" y="101" font-family="Consolas, monospace" font-size="11" fill="#9DA8B0"><tspan fill="#22d3ee">30 days</tspan> · live as you commit</text>
    <circle cx="260" cy="87" r="4" fill="#00d4b8">
      <animate attributeName="opacity" values="1;0.4;1" dur="3s" begin="0.43s" repeatCount="indefinite"/>
    </circle>

    <!-- Card 3: Every link -->
    <rect x="0" y="124" width="280" height="50" rx="9" fill="url(#cardGrad)" stroke="#1E2837" stroke-width="1"/>
    <g transform="translate(20, 149)" stroke="#22d3ee" stroke-width="1.8" fill="none">
      <rect x="-10" y="-4" width="9" height="8" rx="4"/>
      <rect x="1" y="-4" width="9" height="8" rx="4"/>
      <line x1="-2" y1="0" x2="2" y2="0"/>
    </g>
    <text x="50" y="146" font-family="Inter, system-ui, sans-serif" font-size="15" font-weight="700" fill="#F6FBFF">Every link</text>
    <text x="50" y="163" font-family="Consolas, monospace" font-size="11" fill="#9DA8B0"><tspan fill="#22d3ee">cross-service</tspan> · cross-repo</text>
    <circle cx="260" cy="149" r="4" fill="#00d4b8">
      <animate attributeName="opacity" values="1;0.4;1" dur="3s" begin="0.86s" repeatCount="indefinite"/>
    </circle>

    <!-- Card 4: Every language -->
    <rect x="0" y="186" width="280" height="50" rx="9" fill="url(#cardGrad)" stroke="#1E2837" stroke-width="1"/>
    <g transform="translate(20, 211)" stroke="#22d3ee" stroke-width="1.5" fill="none" stroke-linejoin="round">
      <polygon points="0,-8 9,-3 0,2 -9,-3" fill="#22d3ee" fill-opacity="0.15"/>
      <polyline points="-9,1 0,6 9,1"/>
      <polyline points="-9,5 0,10 9,5"/>
    </g>
    <text x="50" y="208" font-family="Inter, system-ui, sans-serif" font-size="15" font-weight="700" fill="#F6FBFF">Every language</text>
    <text x="50" y="225" font-family="Consolas, monospace" font-size="11" fill="#9DA8B0">Rust · Python · TS · <tspan fill="#22d3ee">16+</tspan></text>
    <circle cx="260" cy="211" r="4" fill="#00d4b8">
      <animate attributeName="opacity" values="1;0.4;1" dur="3s" begin="1.29s" repeatCount="indefinite"/>
    </circle>

    <!-- Card 5: Every API -->
    <rect x="0" y="248" width="280" height="50" rx="9" fill="url(#cardGrad)" stroke="#1E2837" stroke-width="1"/>
    <g transform="translate(20, 273)" stroke="#22d3ee" stroke-width="1.6" fill="none" stroke-linecap="round">
      <circle cx="-7" cy="-3" r="2.5"/>
      <circle cx="7" cy="-3" r="2.5"/>
      <circle cx="0" cy="6" r="2.5"/>
      <line x1="-5" y1="-3" x2="5" y2="-3"/>
      <line x1="-5.5" y1="-1" x2="-1.5" y2="4.5"/>
      <line x1="5.5" y1="-1" x2="1.5" y2="4.5"/>
    </g>
    <text x="50" y="270" font-family="Inter, system-ui, sans-serif" font-size="15" font-weight="700" fill="#F6FBFF">Every API</text>
    <text x="50" y="287" font-family="Consolas, monospace" font-size="11" fill="#9DA8B0">cross-service <tspan fill="#22d3ee">HTTP</tspan> routes</text>
    <circle cx="260" cy="273" r="4" fill="#00d4b8">
      <animate attributeName="opacity" values="1;0.4;1" dur="3s" begin="1.71s" repeatCount="indefinite"/>
    </circle>

    <!-- Card 6: Every test -->
    <rect x="0" y="310" width="280" height="50" rx="9" fill="url(#cardGrad)" stroke="#1E2837" stroke-width="1"/>
    <g transform="translate(20, 335)" stroke="#22d3ee" stroke-width="2" fill="none" stroke-linecap="round" stroke-linejoin="round">
      <rect x="-9" y="-9" width="18" height="18" rx="3"/>
      <polyline points="-5,-1 -1,3 5,-3"/>
    </g>
    <text x="50" y="332" font-family="Inter, system-ui, sans-serif" font-size="15" font-weight="700" fill="#F6FBFF">Every test</text>
    <text x="50" y="349" font-family="Consolas, monospace" font-size="11" fill="#9DA8B0">coverage · <tspan fill="#22d3ee">failure trace</tspan></text>
    <circle cx="260" cy="335" r="4" fill="#00d4b8">
      <animate attributeName="opacity" values="1;0.4;1" dur="3s" begin="2.14s" repeatCount="indefinite"/>
    </circle>

    <!-- Card 7: Every dependency -->
    <rect x="0" y="372" width="280" height="50" rx="9" fill="url(#cardGrad)" stroke="#1E2837" stroke-width="1"/>
    <g transform="translate(20, 397)" stroke="#22d3ee" stroke-width="1.6" fill="none" stroke-linejoin="round">
      <polygon points="0,-9 9,-4 9,5 0,9 -9,5 -9,-4" fill="#22d3ee" fill-opacity="0.12"/>
      <polyline points="-9,-4 0,0 9,-4"/>
      <line x1="0" y1="0" x2="0" y2="9"/>
    </g>
    <text x="50" y="394" font-family="Inter, system-ui, sans-serif" font-size="15" font-weight="700" fill="#F6FBFF">Every dependency</text>
    <text x="50" y="411" font-family="Consolas, monospace" font-size="11" fill="#9DA8B0"><tspan fill="#22d3ee">npm · cargo · pip</tspan> · all versions</text>
    <circle cx="260" cy="397" r="4" fill="#00d4b8">
      <animate attributeName="opacity" values="1;0.4;1" dur="3s" begin="2.57s" repeatCount="indefinite"/>
    </circle>
  </g>

  <!-- Static connection curves: 7 paths cards → center glyph -->
  <g stroke="#00d4b8" stroke-width="1.2" fill="none" stroke-dasharray="3 5" opacity="0.4">
    <use href="#flow1"/>
    <use href="#flow2"/>
    <use href="#flow3"/>
    <use href="#flow4"/>
    <use href="#flow5"/>
    <use href="#flow6"/>
    <use href="#flow7"/>
  </g>

  <!-- ANIMATED flow dots — 7 dots, staggered every 0.43s for smooth incoming pulse -->
  <g fill="#00d4b8">
    <circle r="3.5">
      <animateMotion dur="3s" repeatCount="indefinite" begin="0s"><mpath href="#flow1"/></animateMotion>
      <animate attributeName="opacity" values="0;1;1;0" dur="3s" begin="0s" repeatCount="indefinite"/>
    </circle>
    <circle r="3.5">
      <animateMotion dur="3s" repeatCount="indefinite" begin="0.43s"><mpath href="#flow2"/></animateMotion>
      <animate attributeName="opacity" values="0;1;1;0" dur="3s" begin="0.43s" repeatCount="indefinite"/>
    </circle>
    <circle r="3.5">
      <animateMotion dur="3s" repeatCount="indefinite" begin="0.86s"><mpath href="#flow3"/></animateMotion>
      <animate attributeName="opacity" values="0;1;1;0" dur="3s" begin="0.86s" repeatCount="indefinite"/>
    </circle>
    <circle r="3.5">
      <animateMotion dur="3s" repeatCount="indefinite" begin="1.29s"><mpath href="#flow4"/></animateMotion>
      <animate attributeName="opacity" values="0;1;1;0" dur="3s" begin="1.29s" repeatCount="indefinite"/>
    </circle>
    <circle r="3.5">
      <animateMotion dur="3s" repeatCount="indefinite" begin="1.71s"><mpath href="#flow5"/></animateMotion>
      <animate attributeName="opacity" values="0;1;1;0" dur="3s" begin="1.71s" repeatCount="indefinite"/>
    </circle>
    <circle r="3.5">
      <animateMotion dur="3s" repeatCount="indefinite" begin="2.14s"><mpath href="#flow6"/></animateMotion>
      <animate attributeName="opacity" values="0;1;1;0" dur="3s" begin="2.14s" repeatCount="indefinite"/>
    </circle>
    <circle r="3.5">
      <animateMotion dur="3s" repeatCount="indefinite" begin="2.57s"><mpath href="#flow7"/></animateMotion>
      <animate attributeName="opacity" values="0;1;1;0" dur="3s" begin="2.57s" repeatCount="indefinite"/>
    </circle>
  </g>

  <!-- CENTER: Memtrace glyph, vertically aligned with the 7-card stack (mid y=321) -->
  <g transform="translate(510, 221)">
    <circle cx="100" cy="100" r="86" fill="none" stroke="#00d4b8" stroke-width="1.2" opacity="0.3" stroke-dasharray="3 8">
      <animateTransform attributeName="transform" type="rotate" from="0 100 100" to="360 100 100" dur="40s" repeatCount="indefinite"/>
    </circle>
    <circle cx="100" cy="100" r="58" fill="url(#centerGlow)">
      <animate attributeName="r" values="56;72;56" dur="3.5s" repeatCount="indefinite"/>
      <animate attributeName="opacity" values="0.75;1;0.75" dur="3.5s" repeatCount="indefinite"/>
    </circle>
    <path d="M 100 40 C 140 40, 160 73, 143 100 C 127 127, 90 124, 83 100 C 77 76, 103 67, 117 83 C 130 100, 113 113, 103 100"
          fill="none" stroke="#00d4b8" stroke-width="9" stroke-linecap="round" stroke-linejoin="round"/>
    <circle cx="103" cy="100" r="9" fill="#f6fbff">
      <animate attributeName="opacity" values="1;0.7;1" dur="1.8s" repeatCount="indefinite"/>
    </circle>
    <g stroke="#00d4b8" stroke-width="1.2" stroke-linecap="round" fill="none" opacity="0.5">
      <line x1="15" y1="100" x2="36" y2="100"/>
      <line x1="185" y1="100" x2="164" y2="100"/>
      <line x1="100" y1="15" x2="100" y2="36"/>
      <line x1="100" y1="185" x2="100" y2="164"/>
    </g>
    <g fill="#f6fbff">
      <circle cx="15" cy="100" r="4"/>
      <circle cx="185" cy="100" r="4"/>
      <circle cx="100" cy="15" r="4"/>
      <circle cx="100" cy="185" r="4"/>
    </g>
  </g>

  <!-- Center label -->
  <text x="610" y="466" font-family="'Space Grotesk', Inter, sans-serif" font-size="22" font-weight="800" fill="#00d4b8" text-anchor="middle" letter-spacing="-0.5">Memtrace</text>

  <!-- THREE PILLS: shows what gets re-indexed on every code change -->
  <g transform="translate(0, 495)">
    <!-- Pill 1: EMBED -->
    <g transform="translate(438, 0)">
      <rect x="0" y="0" width="100" height="28" rx="14" fill="#0F1822" stroke="#00d4b8" stroke-width="1" stroke-opacity="0.55"/>
      <circle cx="18" cy="14" r="3.5" fill="#00d4b8">
        <animate attributeName="opacity" values="1;0.35;1" dur="1.6s" begin="0s" repeatCount="indefinite"/>
      </circle>
      <text x="60" y="18" text-anchor="middle" font-family="Consolas, monospace" font-size="10" letter-spacing="2.5" font-weight="700" fill="#F6FBFF">EMBED</text>
    </g>
    <!-- Pill 2: VECTOR -->
    <g transform="translate(550, 0)">
      <rect x="0" y="0" width="100" height="28" rx="14" fill="#0F1822" stroke="#00d4b8" stroke-width="1" stroke-opacity="0.55"/>
      <circle cx="18" cy="14" r="3.5" fill="#00d4b8">
        <animate attributeName="opacity" values="1;0.35;1" dur="1.6s" begin="0.5s" repeatCount="indefinite"/>
      </circle>
      <text x="60" y="18" text-anchor="middle" font-family="Consolas, monospace" font-size="10" letter-spacing="2.5" font-weight="700" fill="#F6FBFF">VECTOR</text>
    </g>
    <!-- Pill 3: GRAPH -->
    <g transform="translate(662, 0)">
      <rect x="0" y="0" width="100" height="28" rx="14" fill="#0F1822" stroke="#00d4b8" stroke-width="1" stroke-opacity="0.55"/>
      <circle cx="18" cy="14" r="3.5" fill="#00d4b8">
        <animate attributeName="opacity" values="1;0.35;1" dur="1.6s" begin="1s" repeatCount="indefinite"/>
      </circle>
      <text x="60" y="18" text-anchor="middle" font-family="Consolas, monospace" font-size="10" letter-spacing="2.5" font-weight="700" fill="#F6FBFF">GRAPH</text>
    </g>
  </g>

  <!-- Center subtitle: explicitly says "only the delta" -->
  <text x="610" y="555" font-family="Consolas, monospace" font-size="11" letter-spacing="4" font-weight="700" fill="#9DA8B0" text-anchor="middle">ONLY THE DELTA  ·  ALWAYS LIVE</text>

  <!-- Output arrow center → metrics with animated dot -->
  <use href="#flowOut" stroke="#00d4b8" stroke-width="1.4" fill="none" stroke-dasharray="3 5" opacity="0.65"/>
  <polygon points="845,317 855,321 845,325" fill="#00d4b8" opacity="0.85"/>
  <circle r="3.5" fill="#00d4b8">
    <animateMotion dur="1.8s" repeatCount="indefinite" begin="0.3s"><mpath href="#flowOut"/></animateMotion>
    <animate attributeName="opacity" values="0;1;1;0" dur="1.8s" begin="0.3s" repeatCount="indefinite"/>
  </circle>

  <!-- RIGHT TOP: Agent icon (centered above the panel) -->
  <g transform="translate(945, 130)">
    <line x1="60" y1="0" x2="60" y2="12" stroke="#00d4b8" stroke-width="2"/>
    <circle cx="60" cy="0" r="3.5" fill="#00d4b8">
      <animate attributeName="opacity" values="1;0.5;1" dur="1.4s" repeatCount="indefinite"/>
    </circle>
    <rect x="20" y="12" width="80" height="68" rx="12" fill="#0F1822" stroke="#00d4b8" stroke-width="1.5"/>
    <rect x="32" y="24" width="56" height="34" rx="6" fill="#020303" stroke="#1E2837" stroke-width="1"/>
    <circle cx="48" cy="41" r="3.5" fill="#00d4b8"/>
    <circle cx="72" cy="41" r="3.5" fill="#00d4b8"/>
    <rect x="40" y="66" width="6" height="6" rx="1" fill="#00d4b8">
      <animate attributeName="opacity" values="1;0.3;0.3;1" dur="1.5s" repeatCount="indefinite"/>
    </rect>
    <rect x="50" y="66" width="6" height="6" rx="1" fill="#00d4b8">
      <animate attributeName="opacity" values="0.3;1;0.3;0.3" dur="1.5s" repeatCount="indefinite"/>
    </rect>
    <rect x="60" y="66" width="6" height="6" rx="1" fill="#00d4b8">
      <animate attributeName="opacity" values="0.3;0.3;1;0.3" dur="1.5s" repeatCount="indefinite"/>
    </rect>
    <text x="60" y="100" font-family="Consolas, monospace" font-size="10" letter-spacing="3" font-weight="700" fill="#9DA8B0" text-anchor="middle">YOUR AGENT</text>
    <text x="60" y="118" font-family="Consolas, monospace" font-size="9" letter-spacing="2" fill="#475569" text-anchor="middle">CURSOR · CLAUDE · CODEX</text>
  </g>

  <!-- RIGHT BOTTOM: AGENT KNOWS panel (310 wide, 5 rows + footer) -->
  <g transform="translate(850, 280)">
    <rect x="0" y="0" width="310" height="260" rx="12" fill="url(#cardGrad)" stroke="#00d4b8" stroke-width="1.2" stroke-opacity="0.5"/>
    <text x="20" y="28" font-family="Consolas, monospace" font-size="11" letter-spacing="3" font-weight="700" fill="#00d4b8">AGENT KNOWS</text>

    <g font-family="Inter, system-ui, sans-serif" font-size="13" fill="#F6FBFF">
      <!-- Row 1 -->
      <circle cx="20" cy="62" r="4" fill="#22d3ee">
        <animate attributeName="opacity" values="1;0.4;1" dur="2s" begin="0s" repeatCount="indefinite"/>
      </circle>
      <text x="34" y="66" font-weight="600">What's this function?</text>
      <text x="290" y="66" text-anchor="end" font-family="Consolas, monospace" font-weight="700" fill="#00d4b8">0.07 ms</text>

      <!-- Row 2 -->
      <circle cx="20" cy="94" r="4" fill="#22d3ee">
        <animate attributeName="opacity" values="1;0.4;1" dur="2s" begin="0.4s" repeatCount="indefinite"/>
      </circle>
      <text x="34" y="98" font-weight="600">What calls this?</text>
      <text x="290" y="98" text-anchor="end" font-family="Consolas, monospace" font-weight="700" fill="#00d4b8">96.6%</text>

      <!-- Row 3 — incremental freshness -->
      <circle cx="20" cy="126" r="4" fill="#22d3ee">
        <animate attributeName="opacity" values="1;0.4;1" dur="2s" begin="0.8s" repeatCount="indefinite"/>
      </circle>
      <text x="34" y="130" font-weight="600">Just edited?</text>
      <text x="290" y="130" text-anchor="end" font-family="Consolas, monospace" font-weight="700" fill="#00d4b8">42 ms to fresh</text>

      <!-- Row 4 — temporal -->
      <circle cx="20" cy="158" r="4" fill="#22d3ee">
        <animate attributeName="opacity" values="1;0.4;1" dur="2s" begin="1.2s" repeatCount="indefinite"/>
      </circle>
      <text x="34" y="162" font-weight="600">What changed?</text>
      <text x="290" y="162" text-anchor="end" font-family="Consolas, monospace" font-weight="700" fill="#00d4b8">replayed</text>

      <!-- Row 5 — impact -->
      <circle cx="20" cy="190" r="4" fill="#22d3ee">
        <animate attributeName="opacity" values="1;0.4;1" dur="2s" begin="1.6s" repeatCount="indefinite"/>
      </circle>
      <text x="34" y="194" font-weight="600">What'll break?</text>
      <text x="290" y="194" text-anchor="end" font-family="Consolas, monospace" font-weight="700" fill="#00d4b8">instant</text>
    </g>

    <!-- Footer line: zero LLM badge -->
    <line x1="20" y1="218" x2="290" y2="218" stroke="#1E2837" stroke-width="1"/>
    <text x="155" y="240" font-family="Consolas, monospace" font-size="10" letter-spacing="2" font-weight="700" fill="#9DA8B0" text-anchor="middle">ZERO LLM CALLS  ·  LOCAL  ·  PRIVATE</text>
  </g>

  <!-- Bottom subtitle -->
  <text x="610" y="620" font-family="Consolas, monospace" font-size="11" letter-spacing="4" font-weight="700" fill="#475569" text-anchor="middle">KNOWS WHAT CALLS WHAT  ·  KNOWS WHAT WILL BREAK</text>

  <!-- TAGLINE — split across two lines, italic accent gets its own breath -->
  <text x="600" y="730" font-family="'Space Grotesk', Inter, system-ui, sans-serif" font-size="36" font-weight="800" fill="#F6FBFF" text-anchor="middle" letter-spacing="-1">
    Your agents deserve
  </text>
  <text x="600" y="820" font-family="'Space Grotesk', Inter, system-ui, sans-serif" font-size="56" font-weight="800" font-style="italic" fill="#00d4b8" text-anchor="middle" letter-spacing="-1.5">
    structural memory.
  </text>
</svg>
